<svg width="787" height="728" viewBox="0 0 787 728" fill="none" xmlns="http://www.w3.org/2000/svg">
<g filter="url(#filter0_d_7_191)" class="plane">
<path d="M455.5 424.5L637 145L575 573L455.5 424.5Z" fill="#00FF92"/>
<path d="M150 407L637 145L310 410L150 407Z" fill="#00FF92"/>
<path d="M310 410L637 145L458 360.5L310 410Z" fill="#34CF8D"/>
<path d="M457.5 360.5L637 145L455.5 424.5L485 461L430.5 571L310 410L457.5 360.5Z" fill="#1FB172"/>
<path d="M457 360.5L507.5 344L455.5 424.5L430.5 571L359.5 475.5L457 360.5Z" fill="#26835C"/>
<path d="M430.5 571L455.5 424.5L485 461L430.5 571Z" fill="#166040"/>
</g>
<defs>
<filter id="filter0_d_7_191" x="0" y="0" width="787" height="728" filterUnits="userSpaceOnUse" color-interpolation-filters="sRGB">
<feFlood flood-opacity="0" result="BackgroundImageFix"/>
<feColorMatrix in="SourceAlpha" type="matrix" values="0 0 0 0 0 0 0 0 0 0 0 0 0 0 0 0 0 0 127 0" result="hardAlpha"/>
<feOffset dy="5"/>
<feGaussianBlur stdDeviation="70"/>
<feComposite in2="hardAlpha" operator="out"/>
<feColorMatrix type="matrix" values="0 0 0 0 0.46416 0 0 0 0 1 0 0 0 0 0.770955 0 0 0 1 0"/>
<feBlend mode="normal" in2="BackgroundImageFix" result="effect1_dropShadow_7_191"/>
<feBlend mode="normal" in="SourceGraphic" in2="effect1_dropShadow_7_191" result="shape"/>
</filter>

</defs>

</svg>
